<svg width="52" height="40" viewBox="0 0 52 40" fill="none" xmlns="http://www.w3.org/2000/svg">
<g clip-path="url(#clip0_264_3553)">
<path d="M32.673 36.8321V36.6805H23.0647V36.8321L23.0664 36.9071C23.0664 37.7474 22.7304 38.5533 22.1324 39.1475C21.5344 39.7417 20.7233 40.0755 19.8776 40.0755C19.0319 40.0755 18.2208 39.7417 17.6228 39.1475C17.0248 38.5533 16.6888 37.7474 16.6888 36.9071L16.6905 36.8288V36.6805H15.5952C15.1282 36.6805 14.6752 36.5218 14.3115 36.2307C13.9478 35.9397 13.6952 35.5338 13.5957 35.0805L13.594 35.0671L7.1913 4.94546L1.72123 4.04046C1.20026 3.9359 0.740602 3.63422 0.439363 3.19915C0.138124 2.76408 0.0188981 2.2297 0.106875 1.7089C0.194852 1.1881 0.48314 0.721677 0.910834 0.408169C1.33853 0.0946616 1.87213 -0.0413765 2.39891 0.0287958L2.38884 0.0271291L9.23439 1.16046C10.0681 1.30213 10.7223 1.9288 10.8967 2.73213L10.8984 2.74546L12.0592 8.18546L32.0288 9.8388C31.9055 10.4906 31.8426 11.1522 31.841 11.8155V11.8221C31.841 12.4932 31.8986 13.1482 32.0137 13.7871L32.0037 13.7205C31.4541 13.8926 30.9876 14.2598 30.6934 14.752C30.3991 15.2443 30.2977 15.827 30.4085 16.3888L30.4068 16.3738L31.6128 25.0238C31.6867 25.5788 31.9416 26.0655 32.314 26.4321C32.6528 26.7671 33.1175 26.9771 33.6325 26.9821H33.6341C33.7493 26.9821 33.8606 26.9716 33.9679 26.9505L33.9562 26.9521C34.5279 26.8033 35.0214 26.4442 35.3368 25.9476C35.6523 25.451 35.7662 24.854 35.6554 24.2771L35.6571 24.2921L34.9996 19.5888C36.0434 20.6674 37.2959 21.5253 38.6818 22.1107C40.0678 22.6961 41.5586 22.9971 43.0646 22.9955C43.1373 22.9977 43.2088 22.9944 43.2793 22.9855L43.4353 22.9771L42.3131 29.4805C42.2853 29.6377 42.203 29.7803 42.0804 29.8835C41.9578 29.9867 41.8028 30.044 41.6421 30.0455H16.7073L17.2558 32.6238H41.003C41.5315 32.6446 42.0313 32.8677 42.3979 33.2464C42.7646 33.6251 42.9696 34.1301 42.97 34.6555C42.9704 35.181 42.7663 35.6863 42.4003 36.0655C42.0343 36.4448 41.5348 36.6688 41.0064 36.6905H39.0505V36.8421C39.0505 37.6824 38.7146 38.4883 38.1166 39.0825C37.5185 39.6767 36.7075 40.0105 35.8617 40.0105C35.016 40.0105 34.205 39.6767 33.6069 39.0825C33.0089 38.4883 32.673 37.6824 32.673 36.8421V36.8321ZM34.9509 36.8321C34.9513 36.9565 34.9776 37.0795 35.0283 37.1932C35.0789 37.307 35.1528 37.409 35.2453 37.4929C35.3377 37.5768 35.4466 37.6407 35.5652 37.6806C35.6838 37.7205 35.8094 37.7354 35.9342 37.7245C36.0589 37.7136 36.1799 37.6771 36.2897 37.6173C36.3995 37.5575 36.4956 37.4757 36.5719 37.3771C36.6482 37.2785 36.703 37.1652 36.7329 37.0444C36.7629 36.9236 36.7672 36.798 36.7458 36.6755V36.6805H34.9677C34.9609 36.7308 34.9564 36.7814 34.9543 36.8321H34.9509ZM18.9685 36.8321C18.9688 36.9565 18.9951 37.0795 19.0458 37.1932C19.0965 37.307 19.1704 37.409 19.2628 37.4929C19.3552 37.5768 19.4642 37.6407 19.5828 37.6806C19.7014 37.7205 19.827 37.7354 19.9517 37.7245C20.0764 37.7136 20.1975 37.6771 20.3073 37.6173C20.417 37.5575 20.5131 37.4757 20.5894 37.3771C20.6657 37.2785 20.7206 37.1652 20.7505 37.0444C20.7804 36.9236 20.7848 36.798 20.7633 36.6755V36.6805H18.9836L18.9718 36.8288V36.8321H18.9685ZM25.455 13.7071C24.8833 13.856 24.3899 14.215 24.0744 14.7116C23.759 15.2082 23.6451 15.8053 23.7558 16.3821L23.7541 16.3671L24.9602 25.0171C25.034 25.5721 25.289 26.0588 25.6614 26.4255C26.0002 26.7605 26.4648 26.9705 26.9798 26.9755C27.0939 26.9755 27.2068 26.9649 27.3153 26.9438L27.3036 26.9455C27.8753 26.7966 28.3687 26.4376 28.6842 25.941C28.9996 25.4444 29.1135 24.8473 29.0028 24.2705L29.0045 24.2855L27.7984 15.6355C27.7291 15.1015 27.4823 14.6059 27.0972 14.2271C26.7471 13.8792 26.2739 13.6812 25.7788 13.6755H25.7771C25.6608 13.6755 25.5484 13.6866 25.4399 13.7088L25.4517 13.7071H25.455ZM18.8024 13.7071C18.2283 13.8546 17.7326 14.2143 17.4165 14.7127C17.1004 15.2111 16.9877 15.8106 17.1015 16.3888L17.0998 16.3738L18.3059 25.0238C18.3797 25.5788 18.6347 26.0655 19.007 26.4321C19.3459 26.7671 19.8105 26.9771 20.3255 26.9821H20.3272C20.4412 26.9821 20.5525 26.9716 20.661 26.9505L20.6492 26.9521C21.2213 26.8036 21.7151 26.4447 22.0309 25.9481C22.3467 25.4515 22.4608 24.8542 22.3501 24.2771L22.3518 24.2921L21.1441 15.6371C21.0748 15.1032 20.828 14.6075 20.4429 14.2288C20.0928 13.8809 19.6196 13.6829 19.1245 13.6771H19.1228C19.0087 13.6771 18.898 13.6877 18.7907 13.7088L18.8024 13.7071ZM33.5452 11.8271C33.5457 9.31641 34.5499 6.90871 36.337 5.13367C37.2219 4.25477 38.2724 3.55764 39.4284 3.0821C40.5845 2.60656 41.8235 2.36191 43.0747 2.36213C44.3259 2.36235 45.5648 2.60743 46.7206 3.08337C47.8765 3.55932 48.9267 4.25681 49.8113 5.13603C50.6959 6.01525 51.3975 7.05897 51.8761 8.2076C52.3547 9.35623 52.6009 10.5873 52.6007 11.8305C52.6 14.3416 51.5954 16.7497 49.8078 18.5249C48.0202 20.3 45.5961 21.297 43.0688 21.2963C40.5414 21.2956 38.1178 20.2974 36.3312 18.5213C34.5446 16.7452 33.5412 14.3366 33.5419 11.8255L33.5452 11.8271ZM36.2744 11.8271C36.2744 12.7142 36.4502 13.5926 36.7919 14.4122C37.1336 15.2317 37.6343 15.9764 38.2657 16.6036C38.897 17.2309 39.6464 17.7285 40.4713 18.0679C41.2961 18.4074 42.1802 18.5821 43.073 18.5821C43.9658 18.5821 44.8498 18.4074 45.6747 18.0679C46.4995 17.7285 47.249 17.2309 47.8803 16.6036C48.5116 15.9764 49.0124 15.2317 49.354 14.4122C49.6957 13.5926 49.8716 12.7142 49.8716 11.8271C49.8718 10.0352 49.1555 8.31648 47.8804 7.0492C46.6053 5.78192 44.8757 5.06985 43.0721 5.06963C41.2686 5.06941 39.5388 5.78106 38.2634 7.04802C36.9879 8.31499 36.2713 10.0335 36.271 11.8255L36.2744 11.8271ZM41.7092 14.5288V13.1821H40.3539C39.9917 13.1821 39.6444 13.0392 39.3884 12.7848C39.1323 12.5303 38.9885 12.1853 38.9885 11.8255C38.9885 11.4657 39.1323 11.1206 39.3884 10.8662C39.6444 10.6117 39.9917 10.4688 40.3539 10.4688H41.7092V9.12213C41.7092 8.76232 41.8531 8.41725 42.1092 8.16282C42.3652 7.9084 42.7125 7.76546 43.0747 7.76546C43.4368 7.76546 43.7841 7.9084 44.0401 8.16282C44.2962 8.41725 44.4401 8.76232 44.4401 9.12213V10.4688H45.7954C46.1576 10.4688 46.5049 10.6117 46.7609 10.8662C47.017 11.1206 47.1608 11.4657 47.1608 11.8255C47.1608 12.1853 47.017 12.5303 46.7609 12.7848C46.5049 13.0392 46.1576 13.1821 45.7954 13.1821H44.4401V14.5271C44.4401 14.8869 44.2962 15.232 44.0401 15.4864C43.7841 15.7409 43.4368 15.8838 43.0747 15.8838C42.7125 15.8838 42.3652 15.7409 42.1092 15.4864C41.8531 15.232 41.7092 14.8869 41.7092 14.5271V14.5288Z" fill="#3D4EB0"/>
</g>
<defs>
<clipPath id="clip0_264_3553">
<rect width="52" height="40" fill="white"/>
</clipPath>
</defs>
</svg>
